<?xml version="1.0" encoding="UTF-8" standalone="no"?>
<!-- Created with Inkscape (http://www.inkscape.org/) -->

<svg
   width="339mm"
   height="316mm"
   viewBox="0 0 339 316"
   version="1.1"
   id="svg1"
   xml:space="preserve"
   inkscape:version="1.4.4 (dcaf3e7, 2026-05-05)"
   sodipodi:docname="kaemahz_complete_normalized.svg"
   xmlns:inkscape="http://www.inkscape.org/namespaces/inkscape"
   xmlns:sodipodi="http://sodipodi.sourceforge.net/DTD/sodipodi-0.dtd"
   xmlns="http://www.w3.org/2000/svg"
   xmlns:svg="http://www.w3.org/2000/svg"><sodipodi:namedview
     id="namedview1"
     pagecolor="#ffffff"
     bordercolor="#000000"
     borderopacity="0.25"
     inkscape:showpageshadow="2"
     inkscape:pageopacity="0.0"
     inkscape:pagecheckerboard="0"
     inkscape:deskcolor="#d1d1d1"
     inkscape:document-units="mm"
     showgrid="false"
     inkscape:zoom="3.2337963"
     inkscape:cx="288.82463"
     inkscape:cy="365.36006"
     inkscape:window-width="3840"
     inkscape:window-height="2054"
     inkscape:window-x="-11"
     inkscape:window-y="-11"
     inkscape:window-maximized="1"
     inkscape:current-layer="layer11" /><defs
     id="defs1" /><g
     inkscape:label="outline"
     inkscape:groupmode="layer"
     id="layer1"><path
       id="path1"
       d="m 2.1178465,97.584538 c -2.39506991,2.471442 0.4182,4.752692 1.36862,6.843742 0.95044,2.09211 -4.9041898,4.56354 4.33396,5.70365 8.8959185,3.11766 38.1307585,1.29245 49.2696685,2.73833 11.13892,1.44482 10.83482,3.19333 17.56382,5.93166 14.02815,3.87844 16.8414,9.16282 21.21339,13.91655 5.284785,5.43674 6.805265,15.01883 10.492455,18.70707 l 7.75582,4.10645 10.26404,1.36917 15.73965,0.45604 7.98279,4.10645 13.68643,1.5972 c 0.96295,0.0982 -0.24939,-1.14743 1.8252,-1.82521 3.26899,-0.49387 12.9635,-0.0757 17.79184,-1.14115 4.82729,-1.06444 9.16176,-3.34569 15.51059,-3.87739 l 18.01985,0.22802 1.1401,7.5278 c -0.53169,2.58597 -5.62589,5.62798 -7.07071,8.44198 -1.44482,2.81294 -1.63502,4.86722 -1.59719,8.44093 -0.98773,4.94288 2.77512,6.80591 4.56249,12.54739 1.78633,5.74146 4.63816,15.77958 6.15864,21.90143 1.52048,6.12185 -0.30369,9.12604 1.14009,15.0577 1.90087,11.33058 3.34569,7.37649 3.19333,14.60061 -0.15131,7.22518 -5.05531,20.15294 -4.10541,28.74623 1.02661,10.72218 3.57372,20.30426 6.15864,26.69196 2.58492,6.38875 6.53901,8.66999 9.35195,11.63531 l 8.43988,0.45708 c 2.73729,0.0378 3.83955,1.86303 6.84374,1.82416 3.00313,-0.0378 7.18419,-1.06445 11.17612,-2.05323 l 13.91444,-5.93166 c 3.1555,-1.67285 0.38039,-3.99191 2.05323,-5.70259 1.67284,-1.71172 7.64128,-3.07985 7.98279,-4.56355 l -2.9653,-2.73728 -15.96664,-3.19438 -2.05322,-8.21291 -5.93061,-2.50926 -4.10541,-3.65042 -0.22801,-6.84374 c -0.68406,-2.35796 -4.94288,-2.16776 -6.38665,-4.79156 -1.44484,-2.62381 -0.9888,-8.63112 -2.28125,-10.9502 -1.55936,-3.53693 -3.07984,-3.65041 -2.9653,-5.47562 0.11347,-1.82521 2.66057,-4.10645 3.64936,-5.47562 l 4.56249,-2.73729 c 2.28019,-1.29351 7.48892,0.87425 10.49205,-0.91313 3.00313,-1.78738 4.71381,-8.25074 7.5278,-9.81009 l 7.98279,-3.65042 -0.68406,-3.42134 -6.61467,-6.8448 -8.89592,1.82521 -21.21317,10.49416 -4.79051,-0.91209 c -0.98774,-1.97756 -5.81608,-7.14846 -5.47458,-10.72217 0.34255,-3.57475 1.90086,-6.88261 7.5278,-10.72322 5.09419,-3.19438 13.22934,-16.12215 30.56514,-12.54739 19.161,2.88966 22.1263,19.39217 28.28493,20.30425 h 6.61468 l 24.17848,-10.95124 c 3.68824,-5.20873 18.17622,-29.61034 9.57997,-56.8063 -15.95922,-26.4629 -18.13565,-26.8598 -27.14379,-35.13393 -1.45232,-5.44235 8.43988,-6.15968 11.40518,-8.44093 2.24342,-2.320132 5.66477,-2.585972 6.38666,-5.247602 0.72294,-2.66163 -2.43256,-8.13695 -2.05218,-10.7226 v -5.01906 c 0.3415,-2.01529 -1.86303,-2.96594 -1.14115,-5.24729 0.72294,-2.28145 4.86617,-6.34987 5.47458,-8.44114 l 1.36916,-5.931658 -4.10645,-10.7227 -13.22935,-5.703433 c -2.85181,-0.950642 -3.72607,-0.98868 -4.79051,-0.684584 -1.06444,0.304202 -0.72188,1.44493 -1.59614,2.509686 -1.55935,0.912499 -1.71172,3.346005 -2.73728,4.562704 -1.02661,1.216806 -1.97757,1.863246 -3.42239,2.737707 -1.93869,1.254843 -3.80173,1.749131 -5.47352,1.596978 -1.67285,-0.152048 0.26584,-0.836423 -4.5625,-2.509477 l -24.40651,-8.897492 -6.15863,0.684478 c -2.81399,-0.152153 -6.15862,-2.585658 -10.4931,-3.422185 -4.33343,-0.836527 -10.37857,0.03804 -15.51058,-1.596978 l -15.51059,-6.387911 -2.73729,-6.616142 -4.33448,-1.825102 -31.24918,-7.07239 -11.17717,-8.8974933 -2.05322,-7.07239 -5.70259,-0.228125 c -1.63397,0.266164 -1.36813,2.167343 -2.73729,2.965831 -1.36813,0.798489 -3.19333,1.330815 -5.47458,1.825102 h -9.57998 c -3.68719,0.152154 -6.61466,2.623697 -10.94914,3.193956 -4.33342,0.5703646 -12.58311,-1.292671 -15.05454,0.228231 l -1.36813,6.6160343 -4.79051,2.509582 -0.68405,7.756764 c -0.64623,1.977256 -1.06444,3.76432 -2.05324,5.247183 -0.98772,1.482968 -2.58492,1.901285 -3.87738,3.650311 l -5.018198,5.703537 v 8.441244 c -3.117347,3.003869 -7.717357,10.000078 -13.914127,13.003947 -6.19668,3.003869 -16.38515,3.117984 -23.2662,5.019165 -6.88104,1.90118 -12.58363,5.93166 -17.10768,7.75676 -4.52393,1.82511 -6.76692,1.02661 -10.03632,3.19395 l -10.49268,8.44126 -7.29926,4.56322 z"
       style="overflow:hidden;fill:#657e64;stroke:#000000;stroke-width:0.529167;stroke-dasharray:none;stroke-opacity:1;fill-opacity:1"
       sodipodi:nodetypes="ccccccccccccccccccccsccccccccccccccccccccccsccccccccccccccccccccccccccccccccccccccccccccccccccccccsccccc"
       inkscape:label="kaemahz_outline" /></g><g
     inkscape:groupmode="layer"
     id="layer2"
     inkscape:label="region_borders"><path
       style="fill:none;stroke:#000000;stroke-width:0.529167;stroke-dasharray:none;stroke-opacity:1"
       d="m 147.42795,85.835498 8.15039,3.14902 19.26457,0.74094 6.1128,0.37048 7.96518,-6.29804 1.66711,-5.74232 6.1128,-10.00277 0.18524,-3.334255 2.40808,-0.926179 0.74094,-2.222836 5.74233,-6.298036 0.18523,-1.111417 6.85374,-6.853742 9.63229,-5.742327 3.70472,-5.001381"
       id="path4" /><path
       style="fill:none;stroke:#000000;stroke-width:0.529167;stroke-dasharray:none;stroke-opacity:1"
       d="m 79.800865,63.976788 19.516291,0.13098 17.420584,6.94204 h 3.01257 l 8.77581,2.8816 h 2.48864 l 8.90678,5.63222 7.46596,6.41811 c 0,0 2.66032,3.86749 3.5365,6.02517 1.86059,4.58186 3.53652,14.408002 3.53652,14.408002 l 2.61964,9.69266 0.7859,9.69266 2.09568,10.34756 3.40553,7.72793 2.35768,5.89418 -0.26197,7.72793 -1.8217,3.73183"
       id="path5"
       sodipodi:nodetypes="ccccccccscccccccc" /><path
       style="fill:none;stroke:#000000;stroke-width:0.529167;stroke-dasharray:none;stroke-opacity:1"
       d="m 199.38728,63.714824 7.07302,-3.405528 2.35768,0.261964 5.63221,-3.012583 4.71535,0.392946 c 0.89995,6.154093 6.56795,9.606295 17.94452,9.823635 l 2.22668,1.4408 0.91689,4.58437 c 9.76209,11.32599 20.10203,22.07413 30.91172,32.352522 l -0.131,4.06044 -0.52393,2.35767 -12.57424,9.95462 c -3.09673,-2.42012 -6.47038,-4.47101 -10.60953,-5.50124 l -25.9344,-0.13098 -6.28714,0.78589 h -20.30219 l -2.35768,-0.91687 -7.59695,-9.95462 -1.83372,-0.65491 -7.46599,-7.596952 -0.78589,-2.48865 -0.26196,-6.41811"
       id="path6" /><path
       style="fill:none;stroke:#000000;stroke-width:0.529167;stroke-dasharray:none;stroke-opacity:1"
       d="m 307.70928,109.95142 c -0.98594,3.81752 -2.18725,7.79658 -1.83375,10.60953 -7.28107,6.11249 -17.47601,12.22497 -29.99483,18.33746"
       id="path7" /><path
       style="fill:none;stroke:#000000;stroke-width:0.529167;stroke-dasharray:none;stroke-opacity:1"
       d="m 257.80519,122.3947 c 6.83001,2.89311 13.03521,8.28543 18.46844,16.76567 3.57944,5.35723 6.57119,10.77324 -0.13097,17.15863 l -11.52641,8.38283 c -8.12618,0.77173 -13.61491,-0.71721 -19.38531,-1.96472 -10.48355,-4.46973 -20.63948,-5.00799 -30.78075,-5.37026"
       id="path8" /><path
       style="fill:none;stroke:#000000;stroke-width:0.529167;stroke-dasharray:none;stroke-opacity:1;fill-opacity:1"
       d="m 213.01913,196.61747 5.00439,4.04979 6.27718,-0.40498 6.10361,1.99597 5.72757,2.0249"
       id="path2"
       sodipodi:nodetypes="ccccc" /></g><g
     inkscape:groupmode="layer"
     id="layer3"
     inkscape:label="region_labels"><text
       xml:space="preserve"
       style="font-size:7.05556px;writing-mode:lr-tb;direction:ltr;fill:#000000;stroke:none;stroke-width:0.529167;fill-opacity:1"
       x="49.986023"
       y="90.252541"
       id="text1"
       inkscape:label="fynesmarch"><tspan
         id="tspan1"
         style="font-size:7.05556px;stroke-width:0.529167;fill:#000000;fill-opacity:1;stroke:none"
         x="49.986023"
         y="90.252541"
         sodipodi:role="line">Fynesmarch</tspan></text><text
       xml:space="preserve"
       style="font-size:7.05556px;writing-mode:lr-tb;direction:ltr;fill:#000000;fill-opacity:1;stroke:none;stroke-width:0.529167"
       x="130.09091"
       y="39.436363"
       id="text2"
       inkscape:label="fol"><tspan
         sodipodi:role="line"
         id="tspan2"
         style="stroke-width:0.529167"
         x="130.09091"
         y="39.436363">Fol</tspan></text><text
       xml:space="preserve"
       style="font-size:7.05556px;writing-mode:lr-tb;direction:ltr;fill:#000000;fill-opacity:1;stroke:none;stroke-width:0.529167"
       x="256.74548"
       y="60.709091"
       id="text3"
       inkscape:label="birindal"><tspan
         sodipodi:role="line"
         id="tspan3"
         style="stroke-width:0.529167"
         x="256.74548"
         y="60.709091">Birindal</tspan></text><text
       xml:space="preserve"
       style="font-size:7.05556px;writing-mode:lr-tb;direction:ltr;fill:#000000;fill-opacity:1;stroke:none;stroke-width:0.529167"
       x="199.47273"
       y="87.872726"
       id="text4"
       inkscape:label="orvath"><tspan
         sodipodi:role="line"
         id="tspan4"
         style="stroke-width:0.529167"
         x="199.47273"
         y="87.872726">Orvath</tspan></text><text
       xml:space="preserve"
       style="font-size:7.05556px;writing-mode:lr-tb;direction:ltr;fill:#000000;fill-opacity:1;stroke:none;stroke-width:0.529167"
       x="196.85455"
       y="132.05455"
       id="text5"
       inkscape:label="torwald"><tspan
         sodipodi:role="line"
         id="tspan5"
         style="stroke-width:0.529167"
         x="196.85455"
         y="132.05455">Torwald</tspan></text><text
       xml:space="preserve"
       style="font-size:7.05556px;writing-mode:lr-tb;direction:ltr;fill:#000000;fill-opacity:1;stroke:none;stroke-width:0.529167"
       x="272.94543"
       y="170.34546"
       id="text6"
       inkscape:label="aranvald"><tspan
         sodipodi:role="line"
         id="tspan6"
         style="stroke-width:0.529167"
         x="272.94543"
         y="170.34546">Aranwald</tspan></text><text
       xml:space="preserve"
       style="font-size:7.05556px;writing-mode:lr-tb;direction:ltr;fill:#000000;fill-opacity:1;stroke:none;stroke-width:0.529167"
       x="224.17119"
       y="274.08688"
       id="text7"
       inkscape:label="solvale_empire"><tspan
         sodipodi:role="line"
         id="tspan7"
         style="stroke-width:0.529167"
         x="224.17119"
         y="274.08688">Solvale</tspan><tspan
         sodipodi:role="line"
         style="stroke-width:0.529167"
         x="224.17119"
         y="282.90634"
         id="tspan8">Empire</tspan></text></g><g
     inkscape:groupmode="layer"
     id="layer4"
     inkscape:label="cities_large"><circle
       style="fill:#000000;fill-opacity:1;stroke:none;stroke-width:0.529167"
       id="path9"
       cx="159.87273"
       cy="161.01819"
       r="1.4727273"
       inkscape:label="argentveil" /><circle
       style="fill:#000000;fill-opacity:1;stroke:none;stroke-width:0.529167"
       id="path9-1"
       cx="83.831245"
       cy="120.19355"
       r="1.4727273"
       inkscape:label="khemrise" /><circle
       style="fill:#000000;fill-opacity:1;stroke:none;stroke-width:0.529167"
       id="path9-85"
       cx="198.51819"
       cy="87.368561"
       r="1.4727273"
       inkscape:label="orvath" /><circle
       style="fill:#000000;fill-opacity:1;stroke:none;stroke-width:0.529167"
       id="path9-9"
       cx="266.27615"
       cy="151.97122"
       r="1.4727273"
       inkscape:label="filian's_keep" /><circle
       style="fill:#000000;fill-opacity:1;stroke:none;stroke-width:0.529167"
       id="path9-3"
       cx="273.87006"
       cy="99.160973"
       r="1.4727273"
       inkscape:label="brakvunder" /><circle
       style="fill:#000000;fill-opacity:1;stroke:none;stroke-width:0.529167"
       id="path9-87"
       cx="291.4017"
       cy="55.023106"
       r="1.4727273"
       inkscape:label="drinaell" /><circle
       style="fill:#000000;fill-opacity:1;stroke:none;stroke-width:0.529167"
       id="path9-93"
       cx="263.4928"
       cy="290.10379"
       r="1.4727273"
       inkscape:label="yshavar" /><circle
       style="fill:#000000;fill-opacity:1;stroke:none;stroke-width:0.529167"
       id="path9-4"
       cx="285.8252"
       cy="158.17519"
       r="1.4727273"
       inkscape:label="feldtazur" /><circle
       style="fill:#000000;fill-opacity:1;stroke:none;stroke-width:0.529167"
       id="path9-2"
       cx="134.99338"
       cy="78.831444"
       r="1.4727273"
       inkscape:label="cindermarch" /><circle
       style="fill:#000000;fill-opacity:1;stroke:none;stroke-width:0.529167"
       id="path9-23"
       cx="4.3280201"
       cy="107.77122"
       r="1.4727273"
       inkscape:label="valdmere" /><circle
       style="fill:#000000;fill-opacity:1;stroke:none;stroke-width:0.529167"
       id="path9-8"
       cx="107.11647"
       cy="149.4697"
       r="1.4727273"
       inkscape:label="ravenquay" /></g><g
     inkscape:groupmode="layer"
     id="layer5"
     inkscape:label="cities_large_labels"><text
       xml:space="preserve"
       style="font-size:4.93889px;writing-mode:lr-tb;direction:ltr;fill:#000000;fill-opacity:1;stroke:none;stroke-width:0.529167"
       x="6.3356042"
       y="107.91966"
       id="text1-5-2"
       inkscape:label="khemrise"
       transform="translate(79.920446,12.173636)"><tspan
         id="tspan1-0-4"
         style="font-size:4.93889px;fill:#000000;fill-opacity:1;stroke:none;stroke-width:0.529167"
         x="6.3356042"
         y="107.91966"
         sodipodi:role="line">Khemrise</tspan></text><text
       xml:space="preserve"
       style="font-size:4.9389px;writing-mode:lr-tb;direction:ltr;fill:#000000;fill-opacity:1;stroke:none;stroke-width:0.529167"
       x="274.90909"
       y="97.36364"
       id="text24"
       inkscape:label="brakvunder"><tspan
         sodipodi:role="line"
         id="tspan24"
         style="stroke-width:0.529167"
         x="274.90909"
         y="97.36364">Brakvunder</tspan></text><text
       xml:space="preserve"
       style="font-size:4.9389px;writing-mode:lr-tb;direction:ltr;fill:#000000;fill-opacity:1;stroke:none;stroke-width:0.529167"
       x="289.63638"
       y="60.87273"
       id="text23"
       inkscape:label="drinaell"><tspan
         sodipodi:role="line"
         id="tspan23"
         style="stroke-width:0.529167"
         x="289.63638"
         y="60.87273">Drinaell</tspan></text><text
       xml:space="preserve"
       style="font-size:4.9389px;writing-mode:lr-tb;direction:ltr;fill:#000000;fill-opacity:1;stroke:none;stroke-width:0.529167"
       x="243.49092"
       y="148.25456"
       id="text17"
       inkscape:label="filian's_keep"><tspan
         sodipodi:role="line"
         id="tspan17"
         style="stroke-width:0.529167"
         x="243.49092"
         y="148.25456">Filian's Keep</tspan></text><text
       xml:space="preserve"
       style="font-size:4.9389px;writing-mode:lr-tb;direction:ltr;fill:#000000;fill-opacity:1;stroke:none;stroke-width:0.529167"
       x="252.32727"
       y="296.18182"
       id="text13"
       inkscape:label="yshavar"><tspan
         sodipodi:role="line"
         id="tspan13"
         style="stroke-width:0.529167"
         x="252.32727"
         y="296.18182">Yshavar</tspan></text><text
       xml:space="preserve"
       style="font-size:4.9389px;writing-mode:lr-tb;direction:ltr;fill:#000000;fill-opacity:1;stroke:none;stroke-width:0.529167"
       x="196.85455"
       y="93.272728"
       id="text14"
       inkscape:label="orvath"><tspan
         sodipodi:role="line"
         id="tspan14"
         style="stroke-width:0.529167"
         x="196.85455"
         y="93.272728">Orvath</tspan></text><text
       xml:space="preserve"
       style="font-size:4.93889px;writing-mode:lr-tb;direction:ltr;fill:#000000;fill-opacity:1;stroke:none;stroke-width:0.529167"
       x="6.3356042"
       y="107.91966"
       id="text1-5"
       inkscape:label="valdmere"><tspan
         id="tspan1-0"
         style="font-size:4.93889px;fill:#000000;fill-opacity:1;stroke:none;stroke-width:0.529167"
         x="6.3356042"
         y="107.91966"
         sodipodi:role="line">Valdmere</tspan></text><text
       xml:space="preserve"
       style="font-size:4.9389px;writing-mode:lr-tb;direction:ltr;fill:#000000;fill-opacity:1;stroke:none;stroke-width:0.529167"
       x="138.92728"
       y="156.43637"
       id="text11"
       inkscape:label="argentveil"><tspan
         sodipodi:role="line"
         id="tspan11"
         style="stroke-width:0.529167"
         x="138.92728"
         y="156.43637">Argentveil</tspan></text><text
       xml:space="preserve"
       style="font-size:4.9389px;writing-mode:lr-tb;direction:ltr;fill:#000000;fill-opacity:1;stroke:none;stroke-width:0.529167"
       x="108.65455"
       y="147.27274"
       id="text12"
       inkscape:label="ravenquay"><tspan
         sodipodi:role="line"
         id="tspan12"
         style="stroke-width:0.529167"
         x="108.65455"
         y="147.27274">Ravenquay</tspan></text><text
       xml:space="preserve"
       style="font-size:4.9389px;writing-mode:lr-tb;direction:ltr;fill:#000000;fill-opacity:1;stroke:none;stroke-width:0.529167"
       x="287.34546"
       y="156.43637"
       id="text18"
       inkscape:label="feldtazur"><tspan
         sodipodi:role="line"
         id="tspan18"
         style="stroke-width:0.529167"
         x="287.34546"
         y="156.43637">Feldtazur</tspan></text><text
       xml:space="preserve"
       style="font-size:4.9389px;writing-mode:lr-tb;direction:ltr;fill:#000000;fill-opacity:1;stroke:none;stroke-width:0.529167"
       x="108.16364"
       y="84.436371"
       id="text22"
       inkscape:label="cindermarch"><tspan
         sodipodi:role="line"
         id="tspan22"
         style="stroke-width:0.529167"
         x="108.16364"
         y="84.436371">Cindermarch</tspan></text></g><g
     inkscape:groupmode="layer"
     id="layer6"
     inkscape:label="towns"><circle
       style="fill:#000000;fill-opacity:1;stroke:none;stroke-width:0.529167"
       id="path24"
       cx="176.07274"
       cy="156.10909"
       r="0.81818187"
       inkscape:label="halvenmoren" /><circle
       style="fill:#000000;fill-opacity:1;stroke:none;stroke-width:0.529167"
       id="path24-9"
       cx="184.8087"
       cy="153.78145"
       r="0.81818187"
       inkscape:label="duncavel" /><circle
       style="fill:#000000;fill-opacity:1;stroke:none;stroke-width:0.529167"
       id="path24-3"
       cx="262.52121"
       cy="160.78598"
       r="0.81818187" /><circle
       style="fill:#000000;fill-opacity:1;stroke:none;stroke-width:0.529167"
       id="path24-4"
       cx="254.5356"
       cy="153.44034"
       r="0.81818187" /><circle
       style="fill:#000000;fill-opacity:1;stroke:none;stroke-width:0.529167"
       id="path24-1"
       cx="257.85074"
       cy="139.15929"
       r="0.81818187" /><circle
       style="fill:#000000;fill-opacity:1;stroke:none;stroke-width:0.529167"
       id="path24-37"
       cx="265.10605"
       cy="140.55644"
       r="0.81818187" /><circle
       style="fill:#000000;fill-opacity:1;stroke:none;stroke-width:0.529167"
       id="path24-13"
       cx="277.2981"
       cy="150.46497"
       r="0.81818187" /><circle
       style="fill:#000000;fill-opacity:1;stroke:none;stroke-width:0.529167"
       id="path24-0"
       cx="285.59055"
       cy="150.07085"
       r="0.81818187" /><circle
       style="fill:#000000;fill-opacity:1;stroke:none;stroke-width:0.529167"
       id="path24-15"
       cx="294.85095"
       cy="158.20056"
       r="0.81818187" /><circle
       style="fill:#000000;fill-opacity:1;stroke:none;stroke-width:0.529167"
       id="path24-7"
       cx="286.26117"
       cy="165.13182"
       r="0.81818187" /><circle
       style="fill:#000000;fill-opacity:1;stroke:none;stroke-width:0.529167"
       id="path24-01"
       cx="275.3017"
       cy="165.2392"
       r="0.81818187" /><circle
       style="fill:#000000;fill-opacity:1;stroke:none;stroke-width:0.529167"
       id="path24-41"
       cx="277.49582"
       cy="156.49318"
       r="0.81818187" /><circle
       style="fill:#000000;fill-opacity:1;stroke:none;stroke-width:0.529167"
       id="path24-46"
       cx="275.33353"
       cy="155.55701"
       r="0.81818187" /><circle
       style="fill:#000000;fill-opacity:1;stroke:none;stroke-width:0.529167"
       id="path24-77"
       cx="102.05814"
       cy="141.18048"
       r="0.81818187" /><circle
       style="fill:#000000;fill-opacity:1;stroke:none;stroke-width:0.529167"
       id="path24-6"
       cx="113.48275"
       cy="112.38656"
       r="0.81818187" /><circle
       style="fill:#000000;fill-opacity:1;stroke:none;stroke-width:0.529167"
       id="path24-012"
       cx="146.13713"
       cy="63.047352"
       r="0.81818187" /><circle
       style="fill:#000000;fill-opacity:1;stroke:none;stroke-width:0.529167"
       id="path24-78"
       cx="158.77443"
       cy="70.403603"
       r="0.81818187" /><circle
       style="fill:#000000;fill-opacity:1;stroke:none;stroke-width:0.529167"
       id="path24-016"
       cx="175.70776"
       cy="53.734856"
       r="0.81818187" /><circle
       style="fill:#000000;fill-opacity:1;stroke:none;stroke-width:0.529167"
       id="path24-99"
       cx="108.03067"
       cy="131.16325"
       r="0.81818187" /></g><g
     inkscape:groupmode="layer"
     id="layer14"
     inkscape:label="points_of_interest"><circle
       style="fill:none;stroke:#000000;stroke-width:0.394637"
       id="path74"
       cx="65.577271"
       cy="75.395454"
       r="0.76271951"
       inkscape:label="teleportation_gate" /></g><g
     inkscape:groupmode="layer"
     id="layer7"
     inkscape:label="rivers"><path
       style="fill:none;fill-opacity:1;stroke:#24cced;stroke-width:0.529167;stroke-opacity:1"
       d="m 104.4,147.92728 4.09091,-7.36364 2.94546,-9.16364 0.98181,-10.14545 4.9091,-8.18182 3.43636,-7.69091 3.6,-8.018181 8.18182,-5.563637 11.12727,-2.781819 2.29091,-2.290908"
       id="path25" /><path
       style="fill:none;fill-opacity:1;stroke:#24cced;stroke-width:0.529167;stroke-opacity:1"
       d="m 109.96364,135.49091 -5.56364,2.45455 -4.745451,0.81818"
       id="path26" /><path
       style="fill:none;fill-opacity:1;stroke:#24cced;stroke-width:0.529167;stroke-opacity:1"
       d="m 108.32728,140.89091 5.4,6.54546 -0.32728,7.2"
       id="path27" /><path
       style="fill:none;fill-opacity:1;stroke:#24cced;stroke-width:0.529167;stroke-opacity:1"
       d="m 110.45455,144.49091 0.16363,8.83637"
       id="path28" /><path
       style="fill:none;fill-opacity:1;stroke:#24cced;stroke-width:0.529167;stroke-opacity:1"
       d="M 108.49091,139.41819 102.6,144.32728"
       id="path29" /><path
       style="fill:none;fill-opacity:1;stroke:#24cced;stroke-width:0.529167;stroke-opacity:1"
       d="m 123.7091,99.000002 c 0,0 2.2909,6.709088 2.94545,8.181818 0.65455,1.47273 6.54545,8.50909 7.2,9.32727 0.65455,0.81819 3.27273,5.56364 3.43636,6.38182 0.16364,0.81819 -1.47272,7.2 -1.8,8.18182 -0.32727,0.98182 -4.58181,8.67273 -4.58181,8.67273 l -0.49092,8.67273 1.96364,8.34545"
       id="path30" /><path
       style="fill:none;fill-opacity:1;stroke:#24cced;stroke-width:0.529167;stroke-opacity:1"
       d="m 130.25455,148.41819 -0.98182,8.67272"
       id="path31" /><path
       style="fill:none;fill-opacity:1;stroke:#24cced;stroke-width:0.529167;stroke-opacity:1"
       d="m 78.545456,84.27273 c 0,0 5.890911,5.4 6.218182,6.381819 0.327274,0.981818 0.654547,6.054545 0.163637,7.036363 -0.490908,0.981819 -2.945456,5.399998 -3.927274,6.218178 -0.981816,0.81819 -4.090908,1.96364 -5.890908,4.41819 -1.8,2.45454 -3.436363,5.23636 -3.436363,5.23636 L 70.854548,117"
       id="path32" /><path
       style="fill:none;fill-opacity:1;stroke:#24cced;stroke-width:0.529167;stroke-opacity:1"
       d="m 93.763638,90.327275 -6.218181,2.454545 -2.454545,1.472729"
       id="path33" /><path
       style="fill:none;fill-opacity:1;stroke:#24cced;stroke-width:0.529167;stroke-opacity:1"
       d="m 61.527274,89.67273 c 0,0 -3.763637,5.236364 -4.254545,6.70909 -0.490908,1.472729 -1.472726,5.4 -2.781819,6.21818 -1.309089,0.81818 -5.4,1.63637 -6.709089,1.96364 -1.309093,0.32727 -7.036367,0.65454 -7.690911,0.32727 -0.654545,-0.32727 -5.727272,0.16364 -5.727272,0.16364 0,0 -3.763637,4.74545 -4.09091,5.4 -0.327271,0.65454 -0.490908,1.47273 -0.490908,1.47273"
       id="path34" /><path
       style="fill:none;fill-opacity:1;stroke:#24cced;stroke-width:0.529167;stroke-opacity:1"
       d="m 195.05455,54.000002 c 0,0 -5.56364,2.127272 -6.21818,2.290908 -0.65455,0.163637 -5.72727,1.145456 -6.87273,1.309093 -1.14545,0.163634 -11.78182,0.163634 -11.78182,0.163634"
       id="path35" /><path
       style="fill:none;fill-opacity:1;stroke:#24cced;stroke-width:0.529167;stroke-opacity:1"
       d="m 120.6,65.945456 7.85455,-4.254545 7.36364,-2.945456 1.30909,-6.054545 -9.98182,-5.4 -3.27273,-6.70909 -0.49091,-11.454548 -4.90909,-8.672726 -3.92727,-4.418182"
       id="path36" /><path
       style="fill:none;fill-opacity:1;stroke:#24cced;stroke-width:0.529167;stroke-opacity:1"
       d="m 203.23637,121.90909 c 0,0 -7.69091,5.23637 -8.34546,6.38182 -0.65454,1.14546 -2.94545,8.34546 -2.94545,9.32728 0,0.98181 0.49091,8.67272 0.49091,8.67272 L 192.1091,156.6"
       id="path37" /><path
       style="fill:none;fill-opacity:1;stroke:#24cced;stroke-width:0.529167;stroke-opacity:1"
       d="m 227.45455,124.03637 1.8,6.05454 -0.16363,7.2 -3.6,9.81819 -8.67273,5.56363 -5.56364,3.92727"
       id="path38" /><path
       style="fill:none;fill-opacity:1;stroke:#24cced;stroke-width:0.529167;stroke-opacity:1"
       d="m 244.3091,126.98182 -7.85455,3.92728 c 0,0 -1.47273,5.56363 -1.96363,6.38181 -0.49091,0.81819 -7.52728,4.90909 -7.52728,4.90909"
       id="path39" /><path
       style="fill:none;fill-opacity:1;stroke:#24cced;stroke-width:0.529167;stroke-opacity:1"
       d="m 247.09092,118.63637 c 0,0 4.74545,5.4 5.23636,6.05454 0.49091,0.65455 4.90909,6.70909 4.90909,6.70909 l 2.78182,5.56364 2.94545,5.23636 6.54546,3.43637 8.01818,0.98182 c 0,0 8.67272,0 9.32727,0.32727 0.65456,0.32727 8.18182,3.6 8.18182,3.6 l 7.69091,10.14545 0.81819,14.4 c 0,0 6.21816,4.41818 7.03636,4.41818 0.81817,0 7.69091,-4.90908 7.85455,-6.05454 0.16362,-1.14546 0.49091,-8.18182 0.81817,-9 0.32727,-0.81818 5.23637,-5.4 6.21819,-5.4 0.98181,0 8.18181,2.94545 8.18181,2.94545 l 2.94545,6.38182"
       id="path40" /><path
       style="fill:none;fill-opacity:1;stroke:#24cced;stroke-width:0.529167;stroke-opacity:1"
       d="m 242.18182,71.67273 c 0,0 3.76364,-8.836364 3.76364,-9.818182 0,-0.981819 -1.96364,-9.000001 -1.30909,-10.309093 0.65455,-1.30909 7.03637,-9.327272 7.03637,-9.327272"
       id="path41" /><path
       style="fill:none;fill-opacity:1;stroke:#24cced;stroke-width:0.529167;stroke-opacity:1"
       d="m 265.4182,89.509094 c 0,0 3.27271,-6.872727 4.0909,-7.527275 0.81818,-0.654544 7.2,-4.745452 7.2,-4.745452 l 8.18182,-2.618182 c 0,0 6.05454,-6.054548 6.3818,-6.872729 0.32729,-0.818182 3.1091,-12.763635 3.1091,-12.763635"
       id="path42" /><path
       style="fill:none;fill-opacity:1;stroke:#24cced;stroke-width:0.529167;stroke-opacity:1"
       d="m 276.54546,92.290912 c 0,0 1.47272,-8.345456 1.63637,-9.327274 0.16364,-0.981819 0.98181,-6.381819 0.98181,-6.381819"
       id="path43" /><path
       style="fill:none;fill-opacity:1;stroke:#24cced;stroke-width:0.529167;stroke-opacity:1"
       d="m 292.58183,61.363637 c 1.14546,-1.472726 3.92726,-6.70909 3.92726,-6.70909"
       id="path44" /><path
       style="fill:none;fill-opacity:1;stroke:#24cced;stroke-width:0.529167;stroke-opacity:1"
       d="m 252.32728,224.01819 v -3.27273"
       id="path45" /><path
       style="fill:none;fill-opacity:1;stroke:#24cced;stroke-width:0.529167;stroke-opacity:1"
       d="m 268.69091,218.29092 2.12727,-1.14546"
       id="path46" /><path
       style="fill:none;fill-opacity:1;stroke:#24cced;stroke-width:0.529167;stroke-opacity:1"
       d="m 267.05456,224.83637 3.92727,2.12727"
       id="path47" /><path
       style="fill:none;fill-opacity:1;stroke:#24cced;stroke-width:0.529167;stroke-opacity:1"
       d="m 243.98182,232.03637 -4.74545,5.07273 c 0,0 -3.27273,7.03636 -3.43636,7.85454 -0.16364,0.81818 1.63636,5.89091 1.63636,5.89091 l -1.30909,4.09091 -0.65455,5.56364 5.4,1.8 6.38182,1.47273"
       id="path48" /></g><g
     inkscape:groupmode="layer"
     id="layer8"
     inkscape:label="mountains"><path
       id="path49"
       style="fill:#b37f33;fill-opacity:0.51729816;stroke:#96560c;stroke-width:0.529;stroke-opacity:1;stroke-dasharray:0.52899998, 0.52899998;stroke-dashoffset:0"
       d="M 98.345418 49.418172 L 90.000191 58.909066 L 75.600037 65.782031 L 75.436222 70.199849 C 75.436222 70.199849 81.654694 72.65448 83.781966 72.65448 C 85.909239 72.65448 103.74561 74.45437 103.74561 74.45437 L 113.72743 76.254777 C 113.72743 76.254777 118.14532 76.745703 120.10895 76.745703 C 122.07259 76.745703 134.5091 76.418075 134.5091 76.418075 C 134.5091 76.418075 132.21843 73.636493 131.40025 73.30922 C 130.58207 72.981946 123.0543 70.036196 121.90884 69.708923 C 120.76339 69.381649 112.58167 66.108947 110.12713 65.454403 C 107.67258 64.799858 103.58176 62.182022 102.59994 60.545658 C 101.61812 58.909295 100.47276 53.509023 100.30912 52.690841 C 100.14549 51.87266 98.345418 49.418172 98.345418 49.418172 z M 95.236564 60.054732 L 97.52738 60.545658 L 97.363566 62.508846 L 96.381714 64.636365 L 96.218416 67.254293 L 94.581824 69.708923 L 93.436157 68.072847 L 91.47297 67.581921 L 87.708858 66.927181 L 87.217932 65.127291 L 91.145341 62.999772 L 95.236564 60.054732 z " /><path
       style="fill:#b37f33;fill-opacity:0.51729798;stroke:#97560c;stroke-width:0.529;stroke-dasharray:0.529, 0.529;stroke-dashoffset:0;stroke-opacity:1"
       d="m 138.27273,81.490912 c 0,0 4.25455,3.927273 4.90909,4.254545 0.65455,0.327273 3.76364,4.909092 3.76364,4.909092 l 2.61818,8.672727 2.78182,2.945454 c 0,0 2.45454,3.10909 3.10909,3.27273 0.65454,0.16363 2.78182,-2.78182 3.27273,-3.6 0.49091,-0.81818 1.96363,-3.272729 1.96363,-3.272729 l 3.43637,-5.890911 5.23636,-1.472726 3.10909,7.036363 4.58182,7.854543 8.18182,5.4 5.72727,4.09091 3.43637,4.90909 c 0,0 1.63636,1.63637 2.61818,1.96364 0.98182,0.32727 8.67272,0.65454 9.65454,0.16364 0.98182,-0.49091 12.6,-2.78182 12.6,-2.78182 0,0 4.09091,2.78182 4.74546,3.10909 0.65454,0.32727 4.09091,1.63636 4.74545,1.63636 0.65455,0 7.85455,-1.8 7.85455,-1.8 0,0 2.94545,0.65455 3.6,0.98182 C 240.87273,124.2 245.45455,126 245.45455,126 l 0.98182,-4.25454 5.4,-1.30909 4.09091,1.8 4.09091,-0.65455 2.61818,-5.07273 -5.56363,-1.8 c 0,0 -9.00001,0 -9.65455,0 -0.65455,0 -11.29091,-0.98181 -11.29091,-0.98181 l -6.87273,-2.29091 -10.63636,1.96363 -15.54546,0.81818 c 0,0 -1.47272,-4.0909 -2.12727,-4.58181 -0.65455,-0.49091 -6.54545,-4.90909 -7.2,-5.07273 -0.65455,-0.16364 -9,-6.218183 -9,-6.218183 l -0.81818,-5.4 -5.4,-4.90909 -8.83637,-4.909092 -10.8,-0.163637 -11.94545,-3.272727 -6.38182,-0.981818 z"
       id="path50" /><path
       style="fill:#b37f33;fill-opacity:0.517298;stroke:#97560c;stroke-width:0.529;stroke-dasharray:0.529, 0.529;stroke-dashoffset:0;stroke-opacity:1"
       d="m 261.49092,120.10909 6.54546,-2.29091 c 0,0 0.81817,-2.12727 2.61818,-2.94545 1.79999,-0.81818 2.12725,-4.09091 2.12725,-4.09091 l 0.98182,-4.09091 -3.43635,-3.6 0.98181,-3.763634 6.05454,-5.072727 c 0,0 3.43638,-3.109092 2.78183,-3.436366 -0.65455,-0.327271 -7.03636,-0.163634 -7.03636,-0.163634 l -4.0909,-2.290911 -4.74546,0.490911 c 0,0 -0.16364,-2.290911 -2.78182,-2.945456 -2.61818,-0.654544 -3.6,1.145456 -5.07273,1.8 -1.47273,0.654545 -3.43637,0.818182 -5.07273,1.800001 -1.63636,0.981818 -2.61818,5.072726 -2.61818,5.072726 0,0 -1.8,1.472729 -1.63636,2.127274 0.16363,0.654545 4.25454,3.599996 4.90909,4.090906 0.65454,0.49091 7.03636,3.10909 8.01818,3.92728 0.98182,0.81818 1.47273,5.23636 1.47273,5.23636 l 1.63636,3.10909 -0.65454,2.94545 z"
       id="path51" /><path
       style="fill:#b37f33;fill-opacity:0.517298;stroke:#97560c;stroke-width:0.529;stroke-dasharray:0.529, 0.529;stroke-dashoffset:0;stroke-opacity:1"
       d="m 245.78182,84.109093 c 0.65455,0 3.92728,-2.618181 3.92728,-2.618181 0,0 0,-3.927274 -0.81818,-4.254545 -0.81819,-0.327274 -2.94546,-5.890911 -3.76364,-5.890911 -0.81818,0 -3.27273,0 -3.27273,0 l -5.4,-6.054545 c 0,0 -1.8,-3.109092 -3.43636,-3.272727 -1.63637,-0.163636 -8.34546,-0.818181 -8.34546,-0.818181 0,0 -4.09091,1.963634 -3.43636,3.109089 0.65455,1.145456 2.94545,6.218182 4.41818,6.709093 1.47273,0.490908 5.89091,2.127271 5.89091,2.127271 0,0 5.07273,3.763637 5.23636,4.581819 0.16364,0.818181 2.61819,5.89091 3.27273,6.054545 0.65455,0.163636 5.72727,0.327273 5.72727,0.327273 z"
       id="path52" /><path
       style="fill:#b37f33;fill-opacity:0.517298;stroke:#97560c;stroke-width:0.529;stroke-dasharray:0.529, 0.529;stroke-dashoffset:0;stroke-opacity:1"
       d="m 225.16364,41.89091 c 0,0 -3.27272,-1.145456 -4.58182,-3.10909 -1.30909,-1.963637 -3.76363,-3.109092 -5.07272,-2.454547 -1.30909,0.654547 -1.47273,3.6 -4.09091,5.236366 -2.61818,1.636363 -4.58182,3.763634 -6.70909,4.090908 -2.12728,0.327274 -6.21819,2.945455 -7.2,3.763637 -0.98182,0.818181 -3.10909,5.072726 -3.10909,5.072726 0,0 -1.14546,5.727274 -2.29091,6.709093 -1.14546,0.981816 -5.4,7.036363 -5.4,7.036363 l -2.29091,5.236364 c 0,0 0,6.381818 -0.49091,7.2 -0.49091,0.818182 -5.89091,4.90909 -5.89091,4.90909 l -0.49091,1.636363 6.05455,5.563637 4.58181,-1.8 c 0,0 7.03637,-4.090908 7.03637,-5.563635 0,-1.472729 0.49091,-9.163637 1.63636,-9.981818 1.14546,-0.818182 4.41818,-7.363638 4.41818,-7.363638 l 5.23637,-3.6 c 0,0 6.87272,-1.636363 7.52727,-2.29091 0.65454,-0.654545 3.10909,-2.290908 1.96364,-3.272727 -1.14546,-0.981818 -4.58182,-4.418182 -4.58182,-4.418182 0,0 2.61818,-3.6 3.43636,-4.090908 0.81818,-0.49091 5.89091,-5.563637 5.89091,-5.563637 z"
       id="path53" /><path
       style="fill:#b37f33;fill-opacity:0.517298;stroke:#97560c;stroke-width:0.529;stroke-dasharray:0.529, 0.529;stroke-dashoffset:0;stroke-opacity:1"
       d="m 178.36364,160.2 0.81818,-2.78181 -1.14545,-4.9091 -1.47273,-5.07272 -1.47273,-3.92727 c 0,0 0.98182,-2.78182 1.47273,-3.6 0.49091,-0.81819 2.61818,-4.9091 2.61818,-4.9091 0,0 2.29091,-1.47272 2.78182,-0.81818 0.49091,0.65455 1.63637,4.25455 1.63637,4.25455 0,0 0.81818,3.27273 0,3.76363 -0.81819,0.49091 -1.8,1.47273 -1.8,2.45455 0,0.98182 0.81818,1.8 2.12727,1.8 1.30909,0 3.92727,1.96364 3.92727,1.96364 v 3.27272 l -4.74545,-1.47272 -0.98182,4.41818 1.30909,2.78182 1.30909,1.47272 z"
       id="path54" /><path
       style="fill:#b37f33;fill-opacity:0.517298;stroke:#97560c;stroke-width:0.529;stroke-dasharray:0.529, 0.529;stroke-dashoffset:0;stroke-opacity:1"
       d="m 96.38182,92.290912 c -1.145453,0 -7.854545,-2.618182 -7.854545,-2.618182 0,0 -3.10909,-0.981818 -4.254545,-0.981818 -1.145455,0 -4.418182,0.327271 -4.418182,0.327271 0,0 -4.09091,-2.781816 -4.418181,-3.599998 -0.327274,-0.818184 -0.818182,-3.763637 -1.145456,-4.418184 -0.327273,-0.654545 0.490908,-4.254545 1.472727,-4.090908 0.981818,0.163637 7.527274,2.945455 8.672729,3.109092 1.145453,0.163634 9.490908,2.454545 9.490908,2.454545 0,0 4.909093,5.236363 5.727274,5.890908 0.818181,0.654545 3.272731,3.763637 3.272731,3.763637 l -3.109097,2.945456 z"
       id="path55" /><path
       style="fill:#b37f33;fill-opacity:0.517298;stroke:#97560c;stroke-width:0.529;stroke-dasharray:0.529, 0.529;stroke-dashoffset:0;stroke-opacity:1"
       d="m 71.509093,92.290912 c 0,0 -1.472727,-2.945455 -2.127274,-3.927274 -0.654545,-0.981818 -0.981816,-7.036363 -0.981816,-7.036363 0,0 -3.927274,-4.090908 -4.581819,-4.254545 -0.654547,-0.163637 -5.727273,-0.327274 -6.709092,-0.327274 -0.981818,0 -4.254545,3.109092 -4.745455,4.090911 -0.490908,0.981818 0.818184,4.745453 2.127273,5.236363 1.309093,0.490908 2.290911,4.090908 3.927274,4.418182 1.636363,0.327271 3.272727,0.327271 4.254545,1.30909 0.981819,0.981818 4.581819,3.763637 4.581819,3.763637 l 2.781818,1.636363 2.618182,-2.290908 z"
       id="path56" /><path
       style="fill:#b37f33;fill-opacity:0.517298;stroke:#97560c;stroke-width:0.529;stroke-dasharray:0.529, 0.529;stroke-dashoffset:0;stroke-opacity:1"
       d="M 265.74546,227.94546 268.69091,225 l 2.94547,-0.4909 c 0,0 0.98182,-1.3091 -0.32729,-2.45455 -1.30908,-1.14545 -2.29089,-3.27273 -2.29089,-3.27273 l -1.63637,-1.96363 c 0,0 -4.25455,0.16363 -5.07273,0.49091 -0.81818,0.32727 -5.23636,4.25454 -5.23636,4.25454 l -3.27273,2.61818 c 0,0 -4.09091,0.16364 -5.4,0.49091 -1.30909,0.32727 -2.78182,1.47273 -4.41819,2.29091 -1.63636,0.81818 -5.56363,3.10909 -5.56363,3.10909 0,0 1.63636,0.49091 2.12727,2.94546 0.49091,2.45454 0.98182,8.67273 0.98182,8.67273 0,0 3.10909,-0.65455 4.09091,-1.47273 0.98182,-0.81818 3.10909,-3.92727 3.10909,-3.92727 0,0 3.43636,-0.32728 4.58182,-0.32728 1.14545,0 4.90909,0.49091 5.72727,0.16364 0.81818,-0.32727 3.27273,-4.74546 3.27273,-4.74546 z"
       id="path57" /><path
       style="fill:#b37f33;fill-opacity:0.517298;stroke:#97560c;stroke-width:0.529;stroke-dasharray:0.529, 0.529;stroke-dashoffset:0;stroke-opacity:1"
       d="m 235.14546,187.20001 c 1.14546,0 6.54546,0.4909 7.52727,-0.65455 0.98182,-1.14545 6.38182,-6.38182 6.38182,-7.03637 0,-0.65454 -2.12727,-5.8909 -3.10909,-7.6909 -0.98182,-1.8 -5.56364,-6.54546 -5.56364,-6.54546 0,0 -6.38181,-0.65454 -5.8909,0 0.4909,0.65455 1.14545,5.72728 1.14545,5.72728 0,0 -2.94545,2.94545 -4.90909,2.78181 -1.96364,-0.16363 -6.87273,3.76364 -6.87273,4.58182 0,0.81818 2.78182,9.32727 2.78182,9.32727 z"
       id="path58" /><path
       style="fill:#b37f33;fill-opacity:0.517298;stroke:#97560c;stroke-width:0.529;stroke-dasharray:0.529, 0.529;stroke-dashoffset:0;stroke-opacity:1"
       d="m 300.76365,129.1091 c 0,0 -6.7091,3.43636 -5.07273,5.07272 1.63637,1.63637 6.21819,6.87273 6.05454,8.01818 -0.16364,1.14546 2.61819,5.56364 2.61819,5.56364 l 6.05454,2.29091 c 0,0 4.25455,-4.41818 4.25455,-5.4 0,-0.98182 -7.36365,-14.23637 -7.36365,-14.23637 z"
       id="path59" /><path
       style="fill:#b37f33;fill-opacity:0.517298;stroke:#97560c;stroke-width:0.529;stroke-dasharray:0.529, 0.529;stroke-dashoffset:0;stroke-opacity:1"
       d="m 230.89092,287.50911 -2.45455,3.92726 2.29091,6.21818 h 7.52727 c 0,0 3.76364,-3.43635 3.92727,-4.25455 0.16364,-0.81817 -0.65454,-6.87271 -2.12727,-6.87271 -1.47273,0 -9.16363,0.98182 -9.16363,0.98182 z"
       id="path60" /></g><g
     inkscape:groupmode="layer"
     id="layer9"
     inkscape:label="forests"><path
       style="fill:#03850f;stroke:#024600;stroke-width:0.529;fill-opacity:0.23228998;stroke-dasharray:1.05799997, 0.52899998;stroke-dashoffset:0;stroke-opacity:1"
       d="m 101.12728,71.836364 -8.836371,-0.981816 -10.799997,-1.8 -8.509093,-1.309092 c 0,0 -10.963637,0.163637 -11.618182,0.327273 -0.654545,0.163635 -11.127272,3.600001 -11.127272,3.600001 l -8.509092,4.418181 -8.181819,2.781819 -8.999999,7.690908 -10.8,6.545456 -9.0000003,3.436363 1.8000001,4.418183 5.8909092,2.94545 7.527273,3.92728 c 0,0 14.072728,1.30909 14.890909,1.30909 0.818182,0 12.272727,-0.16364 12.272727,-0.16364 l 8.018182,1.96364 10.145456,-0.81819 c 0,0 4.745453,2.61819 5.4,3.1091 0.654545,0.4909 8.181819,-2.12728 8.836364,-2.45455 0.654544,-0.32727 7.2,-7.2 7.2,-7.2 l 7.854545,-4.909092 8.67273,-3.109089 5.89091,-4.090911 1.30909,-6.218182 3.43636,-4.581816 -3.27273,-5.236366 z"
       id="path3"
       inkscape:label="olwood_verge" /><path
       style="fill:#03850f;fill-opacity:0.23228998;stroke:#034700;stroke-width:0.529;stroke-dasharray:1.05799997,0.52899998;stroke-dashoffset:0;stroke-opacity:1"
       d="m 145.56115,91.178207 -11.80226,4.39692 -5.78542,4.628333 2.77701,7.86817 4.85975,7.17392 6.24825,2.08275 6.9425,0.92567 6.9425,-1.85134 3.00842,-2.54558 4.85976,-1.3885 c 0,0 6.71108,3.23983 7.86816,4.39692 1.15709,1.15708 6.01684,4.85975 7.17392,5.554 1.15709,0.69425 4.85976,3.00842 8.56243,3.93409 3.70266,0.92566 12.4965,3.00841 15.2735,3.23983 2.777,0.23142 6.94251,-0.46283 10.18234,-0.92567 3.23984,-0.46283 8.56242,-1.85133 9.7195,-2.08275 1.15709,-0.23141 5.78542,-1.15708 6.94251,-1.15708 1.15708,0 3.23983,-0.23142 5.32258,0.46283 2.08276,0.69425 5.78542,0.69425 7.17392,0.92567 1.38851,0.23142 4.16551,1.15708 7.86817,1.85133 3.70267,0.69425 6.01684,0.69425 6.01684,0.69425 0,0 3.00842,-0.92566 4.1655,-1.61991 1.15708,-0.69425 3.70267,-2.31417 4.1655,-3.23984 0.46284,-0.92567 -1.3885,-4.39692 -1.3885,-4.39692 0,0 -5.554,-0.46283 -6.9425,-0.23141 -1.3885,0.23141 -7.40534,0 -9.25667,0.23141 -1.85134,0.23142 -5.78542,3.00842 -8.09959,3.00842 -2.31417,0 -3.70267,-0.92567 -7.63675,-0.92567 -3.93409,0 -3.00842,-0.46283 -8.09959,-1.15708 -5.09117,-0.69425 -12.72792,-2.31417 -15.73634,-2.54558 -3.00842,-0.23142 -6.71108,0.23141 -10.18234,-0.46284 -3.47125,-0.69425 -4.85975,-1.15708 -6.9425,-2.777 -2.08275,-1.61992 -7.17392,-6.71109 -7.17392,-6.71109 0,0 -4.1655,-4.62833 -5.554,-6.01683 -1.3885,-1.3885 -3.47125,-6.248255 -4.39692,-7.636754 -0.92567,-1.388502 -3.23984,-4.859753 -4.39692,-5.091171 -1.15708,-0.231415 -4.62833,-0.462833 -5.554,-0.231415 -0.92567,0.231415 -3.47125,3.471251 -3.47125,3.471251 l -1.61992,5.322586 -1.61992,3.239833 c 0,0 -3.93408,-0.69425 -4.39692,-1.619916 -0.46283,-0.925666 -3.23983,-7.636753 -3.23983,-7.636753 z"
       id="path70" /><path
       style="fill:#03850f;fill-opacity:0.23229;stroke:#034700;stroke-width:0.529;stroke-dasharray:1.058, 0.529;stroke-dashoffset:0;stroke-opacity:1"
       d="m 282.55986,144.8669 11.80227,4.39692 c 0,0 5.09117,2.777 6.01684,3.23983 0.92567,0.46283 7.17391,0 8.33101,-0.69425 1.15708,-0.69425 0.23141,-7.40534 0.23141,-7.40534 l -5.78544,-7.63675 3.70269,-3.23983 c 0,0 2.31415,3.47125 3.47125,3.70266 1.15708,0.23142 1.61992,0.92567 3.47126,0.69426 1.85131,-0.23142 6.01683,-4.16551 6.47967,-5.32259 0.46281,-1.15708 -1.61994,-9.25667 -1.61994,-9.25667 0,0 -5.32257,-4.39692 -6.71107,-5.78542 -1.38851,-1.3885 -6.71108,-6.24825 -6.71108,-6.24825 l -1.38851,-4.16551 c 0,0 2.77699,-4.1655 3.93409,-5.09116 1.15708,-0.92567 7.17391,-1.38851 7.86815,-3.23984 0.69427,-1.851334 1.61994,-5.091168 1.61994,-6.479669 0,-1.388502 0.92565,-8.331004 0,-9.488088 -0.92567,-1.157084 -6.47967,-5.785419 -7.40534,-6.47967 -0.92567,-0.694251 -12.26511,-4.396917 -12.26511,-4.396917 l -7.40531,2.08275 -6.01684,2.314167 -2.54558,3.239836 -0.69427,2.314168 c 0,0 -3.47125,0 -4.85973,0.231415 -1.38851,0.231418 -8.09961,0.231418 -8.09961,0.231418 l -7.86816,2.314167 -2.54559,3.702669 6.47967,1.851335 7.17393,2.314167 4.39692,0.694249 c 0,0 1.85132,0 2.77699,0 0.92567,0 2.54558,0.462835 2.54558,0.462835 0,0 2.08275,3.702667 1.85134,5.091168 -0.23143,1.3885 -2.08274,5.78542 -2.08274,5.78542 0,0 0,3.47125 -0.23143,4.62833 -0.23141,1.15709 -1.85132,3.70267 -2.31416,5.09117 -0.46283,1.3885 -0.92567,4.39692 -2.31417,4.85975 -1.38851,0.46284 -8.33099,0.46284 -8.33099,0.46284 0,0 0,2.31417 0,3.70267 0,1.3885 1.85131,5.09117 1.85131,6.01683 0,0.92567 0.46284,7.17392 0.46284,7.17392 l 7.40534,3.93409 z"
       id="path71" /><path
       style="fill:#03850f;fill-opacity:0.23229;stroke:#034700;stroke-width:0.529;stroke-dasharray:1.058, 0.529;stroke-dashoffset:0;stroke-opacity:1"
       d="m 254.78986,186.2905 8.09959,2.54558 9.48808,3.00842 c 0,0 4.85976,-0.92567 5.78543,-0.46283 0.92567,0.46283 4.3969,4.85975 5.09117,6.47967 0.69424,1.61991 3.23982,4.85975 5.09116,5.32258 1.85135,0.46284 4.39693,1.3885 6.47968,0 2.08274,-1.3885 4.85976,-4.39692 5.7854,-5.78542 0.92567,-1.3885 -1.15707,-8.331 -2.77699,-9.48808 -1.61991,-1.15709 -8.56241,-5.78542 -9.71949,-6.71109 -1.1571,-0.92567 -5.3226,-3.93408 -7.17394,-4.85975 -1.85132,-0.92567 -9.02525,-2.08275 -11.33941,-2.08275 -2.31417,0 -8.33101,-2.54559 -9.48809,-2.77701 -1.15709,-0.23141 -6.24826,-1.38849 -8.09959,-1.38849 -1.85133,0 -5.32258,1.85133 -5.554,3.00841 -0.23142,1.15709 1.15708,4.39692 0.92566,5.32259 -0.23141,0.92567 -0.92566,2.31417 -2.08275,3.00842 -1.15708,0.69425 -3.23983,2.08275 -5.32258,2.08275 -2.08275,0 -5.32259,0 -6.47967,-0.23142 -1.15708,-0.23142 -4.1655,-0.23142 -4.1655,-0.23142 0,0 -1.61992,0.46284 -2.777,1.85134 -1.15709,1.3885 -4.39692,2.777 -0.92567,3.93408 3.47125,1.15709 10.64517,3.70267 12.4965,3.23984 1.85134,-0.46284 10.64518,-3.93409 10.64518,-3.93409 z"
       id="path72" /><path
       style="fill:#03850f;fill-opacity:0.23229;stroke:#034700;stroke-width:0.529;stroke-dasharray:1.058, 0.529;stroke-dashoffset:0;stroke-opacity:1"
       d="m 197.86134,50.911688 c 0,0 3.70266,-1.851332 5.09117,-2.545583 1.3885,-0.694251 5.09116,-3.008418 6.24825,-3.471251 1.15708,-0.462836 3.70267,-3.239836 3.70267,-3.239836 0,0 1.3885,-3.471251 -0.23142,-4.165502 -1.61992,-0.694251 -2.54558,-2.314168 -6.9425,-1.619917 -4.39692,0.694251 -9.25667,3.934084 -10.87659,4.859753 -1.61992,0.925666 0.23142,1.388499 -3.70267,1.619917 -3.93408,0.231417 -5.32258,0.231417 -6.47967,0.231417 -1.15708,0 -12.26509,-0.462835 -12.26509,-0.462835 0,0 -3.70267,3.934087 -0.46283,4.859753 3.23983,0.925668 7.63675,4.39692 10.64517,4.628335 3.00842,0.231418 9.02525,0.231418 9.95092,0.231418 0.92567,0 5.32259,-0.925669 5.32259,-0.925669 z"
       id="path73" /></g><g
     inkscape:groupmode="layer"
     id="layer10"
     inkscape:label="climates" /><g
     inkscape:groupmode="layer"
     id="layer11"
     inkscape:label="roads"><path
       style="fill:none;fill-opacity:0.23228998;stroke:#f0d168;stroke-width:0.529;stroke-dasharray:3.17399991, 0.52899998;stroke-dashoffset:0;stroke-opacity:1"
       d="m 4.7454547,108 c 0,0 7.0363633,0.32727 8.3454543,1.14546 1.309091,0.81818 12.763637,2.12727 12.763637,2.12727 0,0 5.890908,-0.32727 7.036363,-0.32727 1.145456,0 9.163638,0 10.145456,-0.16364 0.981819,-0.16364 7.854545,-0.98182 9.000001,-0.98182 1.145452,0 9.490908,1.14546 9.490908,1.14546 0,0 6.545455,1.63636 7.527274,2.12727 0.981816,0.49091 8.345453,3.43636 8.345453,3.43636 l 5.890911,3.6 c 0,0 2.945452,0.98182 3.6,1.30909 0.654545,0.32728 4.581816,3.76364 5.890908,4.58182 1.30909,0.81818 6.218182,6.38182 6.218182,6.38182 l 1.799998,6.05455 1.14546,2.2909 2.12727,5.56364 3.6,3.6 6.70909,2.94546 3.43636,0.65454 5.4,-0.49091 c 0,0 2.78182,-1.63636 3.43637,-1.96363 0.65454,-0.32728 3.92727,-2.94546 3.92727,-2.94546 l 5.56364,1.8 c 0,0 3.27273,2.94546 3.76363,3.92727 0.49091,0.98182 2.12728,2.45455 2.94546,2.78182 0.81818,0.32728 8.18182,2.45455 8.18182,2.45455 l 8.67272,1.8 5.23637,-1.96364 3.10909,-0.16363 5.07273,-0.65455 3.10909,-1.96363"
       id="path10" /><path
       style="fill:none;fill-opacity:0.23229;stroke:#f0d168;stroke-width:0.529;stroke-dasharray:3.17399, 0.529;stroke-dashoffset:0;stroke-opacity:1"
       d="m 100.63637,137.78182 3.43636,-3.92727 4.25454,-2.61818 2.29091,-7.36364 1.47273,-5.4 1.96364,-6.05455 4.74545,-9.4909 2.94546,-6.709097 4.74545,-5.072726 4.09091,-3.927274 4.58182,-7.854545 3.92727,-5.072727 3.92728,-4.745455 3.10909,-6.381819 0.81818,-4.745455 -0.49091,-7.363635"
       id="path11" /><path
       style="fill:none;fill-opacity:0.23229;stroke:#f0d168;stroke-width:0.529;stroke-dasharray:3.17399, 0.529;stroke-dashoffset:0;stroke-opacity:1"
       d="m 146.61819,62.672729 4.41818,-4.581818 8.01818,-4.254545 10.14545,0.981818 6.70909,-1.145455"
       id="path12" /><path
       style="fill:none;fill-opacity:0.23229;stroke:#f0d168;stroke-width:0.529;stroke-dasharray:3.17399, 0.529;stroke-dashoffset:0;stroke-opacity:1"
       d="m 90.818183,123.87273 c 0,0 4.745456,1.63636 5.727274,2.29091 0.981818,0.65454 6.218183,2.78182 6.872723,2.94545 0.65455,0.16364 4.58182,1.8 4.58182,1.8"
       id="path13" /><path
       style="fill:none;fill-opacity:0.23229;stroke:#f0d168;stroke-width:0.529;stroke-dasharray:3.17399, 0.529;stroke-dashoffset:0;stroke-opacity:1"
       d="M 83.945456,119.61818 V 115.2 l 5.727272,-2.61818 7.363637,-2.29091 c 0,0 5.890915,-3.6 6.709095,-2.78182 0.81818,0.81818 5.23636,5.07273 5.23636,5.07273 L 113.4,112.09091"
       id="path14" /><path
       style="fill:none;fill-opacity:0.23229;stroke:#f0d168;stroke-width:0.529;stroke-dasharray:3.17399, 0.529;stroke-dashoffset:0;stroke-opacity:1"
       d="m 176.07273,156.10909 9,-2.45454"
       id="path15"
       inkscape:label="dunric_pass" /><path
       style="fill:none;fill-opacity:0.23229;stroke:#f0d168;stroke-width:0.529;stroke-dasharray:3.17399, 0.529;stroke-dashoffset:0;stroke-opacity:1"
       d="m 254.61819,153 1.8,-7.52727 1.63636,-6.21818 4.25455,-2.12728 3.43636,3.43637 4.09091,2.12727 3.76364,1.63636 3.6,6.38182 8.50908,-0.49091 5.07273,2.78182 3.76364,5.23637 -2.94545,3.92727 -5.07272,2.94545 -3.6,-4.25454 -3.43638,-2.12727 -5.8909,2.2909 -4.09091,2.78182 -7.03637,-2.78182 -5.89091,-4.74545 z"
       id="path16" /><path
       style="fill:none;fill-opacity:0.23229;stroke:#f0d168;stroke-width:0.529;stroke-dasharray:3.17399, 0.529;stroke-dashoffset:0;stroke-opacity:1"
       d="m 254.61819,153.49091 11.61818,-1.30909 -8.50909,-13.09091"
       id="path17" /><path
       style="fill:none;fill-opacity:0.23229;stroke:#f0d168;stroke-width:0.529;stroke-dasharray:3.17399, 0.529;stroke-dashoffset:0;stroke-opacity:1"
       d="m 265.09091,140.4 1.3091,11.78182 10.63636,-1.8"
       id="path18" /><path
       style="fill:none;fill-opacity:0.23229;stroke:#f0d168;stroke-width:0.529;stroke-dasharray:3.17399, 0.529;stroke-dashoffset:0;stroke-opacity:1"
       d="m 266.72728,153 8.5091,2.45455 2.2909,1.14545 8.01817,1.47273"
       id="path19"
       inkscape:label="kings_road_or_something" /><path
       style="fill:none;fill-opacity:0.23229;stroke:#f0d168;stroke-width:0.529;stroke-dasharray:3.17399, 0.529;stroke-dashoffset:0;stroke-opacity:1"
       d="m 285.38183,150.21818 0.98181,8.18182 7.85456,-0.16363"
       id="path20" /><path
       style="fill:none;fill-opacity:0.23229;stroke:#f0d168;stroke-width:0.529;stroke-dasharray:3.17399, 0.529;stroke-dashoffset:0;stroke-opacity:1"
       d="m 286.36364,165.43637 -0.4909,-6.70909"
       id="path21" /><path
       style="fill:none;fill-opacity:0.23229;stroke:#f0d168;stroke-width:0.529;stroke-dasharray:3.17399, 0.529;stroke-dashoffset:0;stroke-opacity:1"
       d="m 262.63637,160.36364 3.76364,-7.69091"
       id="path22" /><path
       style="fill:none;fill-opacity:0.23229;stroke:#f0d168;stroke-width:0.529;stroke-dasharray:3.17399, 0.529;stroke-dashoffset:0;stroke-opacity:1"
       d="m 294.87272,157.90909 8.0182,-1.96363 8.67273,-2.12728 11.12726,1.14546 9.00001,2.45454 5.07273,2.61819"
       id="path23" /><path
       style="fill:none;fill-opacity:0.23229;stroke:#f0d168;stroke-width:0.529;stroke-dasharray:3.17399, 0.529;stroke-dashoffset:0;stroke-opacity:1"
       d="m 159.87273,159.54546 0.98182,-7.2 c 0,0 -0.49091,-5.56364 -0.81818,-6.70909 -0.32728,-1.14546 -4.74546,-12.43637 -4.74546,-12.43637 0,0 -0.16363,-2.94545 -0.16363,-3.6 0,-0.65454 -1.3091,-6.87273 -1.3091,-6.87273 l 1.14546,-4.58181 4.41818,-3.43637 7.03636,-2.45454 9.65455,-1.96364 3.27273,-0.81818 L 180,108 l 0.16364,-2.94545 2.29091,1.96363 1.8,0.32728 -0.65455,-1.8 -1.30909,-2.29091 -0.32727,-2.61818 0.98182,1.30909 0.81818,1.63636 0.98182,0.32727 2.45454,0.49091 -0.98182,-1.14545 -1.30908,-1.8 -0.98182,-2.454548 2.2909,1.963638 2.45455,1.14545 h 0.81818 l -0.32727,-1.63636 c 0,0 -1.14546,0 -0.49091,-0.98182 0.65455,-0.981819 1.96364,-2.781816 1.96364,-2.781816 l 2.78182,-2.127274 1.8,-3.272726 L 198,87.872728"
       id="path61" /><path
       style="fill:none;fill-opacity:0.23229;stroke:#f0d168;stroke-width:0.529;stroke-dasharray:3.17399, 0.529;stroke-dashoffset:0;stroke-opacity:1"
       d="m 263.61819,289.8 -3.10909,-4.74546 -5.72728,-4.74544 c 0,0 -3.27272,-3.6 -3.6,-4.41819 -0.32727,-0.81817 0.65455,-4.25453 -1.63636,-5.8909 -2.29091,-1.63637 -7.36364,-4.25455 -7.36364,-4.25455 l -5.56363,-2.94546 -5.4,-3.10909 c 0,0 -2.12728,-7.2 -2.12728,-7.85454 0,-0.65455 -3.6,-9 -3.6,-9 l -2.45454,-9.32728 -0.32728,-11.12727 -0.32727,-8.18182 c 0,0 1.30909,-7.52727 1.30909,-8.18181 0,-0.65455 0.65455,-5.72728 0.65455,-5.72728"
       id="path62" /><path
       style="fill:none;fill-opacity:0.23229;stroke:#f0d168;stroke-width:0.529;stroke-dasharray:3.17399, 0.529;stroke-dashoffset:0;stroke-opacity:1"
       d="m 291.27272,54.981818 -13.5818,-4.418182 c 0,0 -17.01819,-4.745452 -17.67273,-4.745452 -0.65455,0 -11.29091,-3.600001 -11.29091,-3.600001 l -16.03637,0.490908 c 0,0 -7.2,5.072727 -7.85454,5.563637 -0.65455,0.490908 -5.07273,9.163638 -5.07273,9.163638 l -1.8,8.672726 -8.01818,10.472727 -4.90909,4.745456 -6.21818,5.727271"
       id="path63" /><path
       style="fill:none;fill-opacity:0.23229;stroke:#f0d168;stroke-width:0.529;stroke-dasharray:3.17399, 0.529;stroke-dashoffset:0;stroke-opacity:1"
       d="m 290.29091,56.127274 -6.38181,6.545455 -4.74546,8.018182 c 0,0 -7.03635,6.054545 -8.34546,6.70909 -1.30908,0.654545 -11.45454,4.909092 -11.45454,4.909092 l -7.85454,4.418182 c 0,0 -6.21819,0.327271 -6.87273,0.327271 -0.65455,0 -8.34546,-4.418182 -8.50909,-5.236363 -0.16364,-0.818182 -4.74546,-5.727272 -4.74546,-5.727272 l -8.01818,-3.763637 -9.81818,-0.49091"
       id="path64" /><path
       style="fill:none;fill-opacity:0.23229;stroke:#f0d168;stroke-width:0.529;stroke-dasharray:3.17399, 0.529;stroke-dashoffset:0;stroke-opacity:1"
       d="m 277.03637,71.836364 2.94545,2.945455 0.81819,4.745456 2.2909,7.527271 0.98181,4.745456 -6.05454,7.036363 -4.25455,0.818182 1.47274,4.418183 1.8,6.05455 -5.4,7.69091 -2.29091,3.43636 -1.96363,5.4 c 0,0 -0.98182,2.61818 -1.30909,3.43636 -0.32728,0.81818 -3.76364,7.03637 -3.76364,7.03637"
       id="path65" /><path
       style="fill:none;fill-opacity:0.23229;stroke:#f0d168;stroke-width:0.529;stroke-dasharray:3.17399, 0.529;stroke-dashoffset:0;stroke-opacity:1"
       d="m 284.07272,91.800002 7.85456,-0.981819 c 0,0 12.43637,-1.145455 13.41818,-0.654545 0.98182,0.490908 7.85455,3.436364 7.85455,3.436364 l 11.45453,2.290908"
       id="path66" /><path
       style="fill:none;fill-opacity:0.23229;stroke:#f0d168;stroke-width:0.529;stroke-dasharray:3.17399, 0.529;stroke-dashoffset:0;stroke-opacity:1"
       d="m 291.60001,55.472729 1.30908,3.6 2.61819,1.145453 7.6909,-2.781816 c 0,0 4.09091,-3.6 4.90911,-4.090911 0.81817,-0.490908 8.50908,-2.127271 8.50908,-2.127271 L 324.16363,50.4"
       id="path67" /><path
       style="fill:none;fill-opacity:0.23229;stroke:#f0d168;stroke-width:0.529;stroke-dasharray:3.17399, 0.529;stroke-dashoffset:0;stroke-opacity:1"
       d="m 184.74546,153.65455 10.8,-0.65455 14.23636,0.65455 7.52727,0.98182 10.14546,-1.14546 h 10.47273 l 8.67272,0.81818 7.85455,-1.14545"
       id="path68" /><path
       style="fill:none;fill-opacity:0.23229;stroke:#f0d168;stroke-width:0.529;stroke-dasharray:3.17399, 0.529;stroke-dashoffset:0;stroke-opacity:1"
       d="m 157.25455,116.34546 c 0.65454,0.32727 5.07273,4.09091 5.07273,4.09091 l 5.8909,5.8909 8.01819,2.61819 6.70909,2.29091 7.52727,1.14545 4.25455,0.16364 7.19999,1.47272 8.67273,0.32728 5.89091,-2.94546 5.89091,-2.45454 6.38182,-2.29091 h 3.76364 l 5.56363,2.94545 3.43637,1.8 10.96363,2.45455 5.07273,4.90909"
       id="path69" /></g><g
     inkscape:groupmode="layer"
     id="layer12"
     inkscape:label="cliffs" /><g
     inkscape:groupmode="layer"
     id="layer13"
     inkscape:label="lakes" /></svg>
