<?xml version="1.0" encoding="UTF-8"?>
<svg xmlns="http://www.w3.org/2000/svg" viewBox="0 0 336.72092 313.7638">
  <g id="layer1" transform="translate(-490.88297,-30.75441)">
    <path id="outline" d="m 492.088,127.52173 c -2.39507,2.47144 0.4182,4.75269 1.36862,6.84374 0.95044,2.09211 -4.90419,4.56354 4.33396,5.70365 8.89592,3.11766 38.13076,1.29245 49.26967,2.73833 11.13892,1.44482 10.83482,3.19333 17.56382,5.93166 14.02815,3.87844 16.8414,9.16282 21.21339,13.91655 5.2848,5.43674 6.80528,15.01883 10.49247,18.70707 l 7.75582,4.10645 10.26404,1.36917 15.73965,0.45604 7.98279,4.10645 13.68643,1.5972 c 0.96295,0.0982 -0.24939,-1.14743 1.8252,-1.82521 3.26899,-0.49387 12.9635,-0.0757 17.79184,-1.14115 4.82729,-1.06444 9.16176,-3.34569 15.51059,-3.87739 l 18.01985,0.22802 1.1401,7.5278 c -0.53169,2.58597 -5.62589,5.62798 -7.07071,8.44198 -1.44482,2.81294 -1.63502,4.86722 -1.59719,8.44093 -0.98773,4.94288 2.77512,6.80591 4.56249,12.54739 1.78633,5.74146 4.63816,15.77958 6.15864,21.90143 1.52048,6.12185 -0.30369,9.12604 1.14009,15.0577 1.90087,11.33058 3.34569,7.37649 3.19333,14.60061 -0.15131,7.22518 -5.05531,20.15294 -4.10541,28.74623 1.02661,10.72218 3.57372,20.30426 6.15864,26.69196 2.58492,6.38875 6.53901,8.66999 9.35195,11.63531 l 8.43988,0.45708 c 2.73729,0.0378 3.83955,1.86303 6.84374,1.82416 3.00313,-0.0378 7.18419,-1.06445 11.17612,-2.05323 L 764.21225,336.27 c 3.1555,-1.67285 0.38039,-3.99191 2.05323,-5.70259 1.67284,-1.71172 7.64128,-3.07985 7.98279,-4.56355 l -2.9653,-2.73728 -15.96664,-3.19438 -2.05322,-8.21291 -5.93061,-2.50926 -4.10541,-3.65042 -0.22801,-6.84374 c -0.68406,-2.35796 -4.94288,-2.16776 -6.38665,-4.79156 -1.44484,-2.62381 -0.9888,-8.63112 -2.28125,-10.9502 -1.55936,-3.53693 -3.07984,-3.65041 -2.9653,-5.47562 0.11347,-1.82521 2.66057,-4.10645 3.64936,-5.47562 l 4.56249,-2.73729 c 2.28019,-1.29351 7.48892,0.87425 10.49205,-0.91313 3.00313,-1.78738 4.71381,-8.25074 7.5278,-9.81009 l 7.98279,-3.65042 -0.68406,-3.42134 -6.61467,-6.8448 -8.89592,1.82521 -21.21317,10.49416 -4.79051,-0.91209 c -0.98774,-1.97756 -5.81608,-7.14846 -5.47458,-10.72217 0.34255,-3.57475 1.90086,-6.88261 7.5278,-10.72322 5.09419,-3.19438 13.22934,-16.12215 30.56514,-12.54739 19.161,2.88966 22.1263,19.39217 28.28493,20.30425 h 6.61468 l 24.17848,-10.95124 c 3.68824,-5.20873 18.17622,-29.61034 9.57997,-56.8063 -15.95922,-26.4629 -18.13565,-26.8598 -27.14379,-35.13393 -1.45232,-5.44235 8.43988,-6.15968 11.40518,-8.44093 2.24342,-2.32013 5.66477,-2.58597 6.38666,-5.2476 0.72294,-2.66163 -2.43256,-8.13695 -2.05218,-10.7226 v -5.01906 c 0.3415,-2.01529 -1.86303,-2.96594 -1.14115,-5.24729 0.72294,-2.28145 4.86617,-6.349866 5.47458,-8.441131 l 1.36916,-5.931662 -4.10645,-10.7227 -13.22935,-5.703433 c -2.85181,-0.950642 -3.72607,-0.98868 -4.79051,-0.684584 -1.06444,0.304202 -0.72188,1.44493 -1.59614,2.509686 -1.55935,0.912499 -1.71172,3.346005 -2.73728,4.562704 -1.02661,1.216806 -1.97757,1.863246 -3.42239,2.737707 -1.93869,1.254843 -3.80173,1.749131 -5.47352,1.596978 -1.67285,-0.152048 0.26584,-0.836423 -4.5625,-2.509477 l -24.40651,-8.897492 -6.15863,0.684478 c -2.81399,-0.152153 -6.15862,-2.585658 -10.4931,-3.422185 -4.33343,-0.836527 -10.37857,0.03804 -15.51058,-1.596978 l -15.51059,-6.387911 -2.73729,-6.616142 -4.33448,-1.825102 -31.24918,-7.07239 -11.17717,-8.897494 -2.05322,-7.07239 -5.70259,-0.228125 c -1.63397,0.266164 -1.36813,2.167343 -2.73729,2.965831 -1.36813,0.798489 -3.19333,1.330815 -5.47458,1.825102 h -9.57998 c -3.68719,0.152154 -6.61466,2.623697 -10.94914,3.193956 -4.33342,0.570365 -12.58311,-1.292671 -15.05454,0.228231 l -1.36813,6.616035 -4.79051,2.509582 -0.68405,7.756764 c -0.64623,1.977256 -1.06444,3.76432 -2.05324,5.247183 -0.98772,1.482968 -2.58492,1.901285 -3.87738,3.650311 l -5.01821,5.703537 v 8.441244 c -3.11735,3.003869 -7.71736,10.000078 -13.91413,13.003947 -6.19668,3.003869 -16.38515,3.117984 -23.2662,5.019163 -6.88104,1.901181 -12.58363,5.931657 -17.10768,7.756757 -4.52393,1.82511 -6.76692,1.02661 -10.03632,3.19395 l -10.49268,8.44126 -7.29926,4.56322 z"/>
    <path id="path4" d="m 637.39812,115.77269 8.15039,3.14902 19.26457,0.74094 6.1128,0.37048 7.96518,-6.29804 1.66711,-5.74232 6.1128,-10.002765 0.18524,-3.334255 2.40808,-0.926179 0.74094,-2.222836 5.74233,-6.298036 0.18523,-1.111417 6.85374,-6.853742 9.63229,-5.742327 3.70472,-5.001381"/>
    <path id="path5" d="m 569.77102,93.913985 19.5163,0.13098 17.42059,6.942035 h 3.01257 l 8.77581,2.8816 h 2.48864 l 8.90678,5.63222 7.46596,6.41811 c 0,0 2.66032,3.86749 3.5365,6.02517 1.86059,4.58186 3.53652,14.408 3.53652,14.408 l 2.61964,9.69266 0.7859,9.69266 2.09568,10.34756 3.40553,7.72793 2.35768,5.89418 -0.26197,7.72793 -2.22668,4.71535"/>
    <path id="path6" d="m 689.35745,93.652021 7.07302,-3.405528 2.35768,0.261964 5.63221,-3.012583 4.71535,0.392946 c 0.89995,6.154093 6.56795,9.606293 17.94452,9.823637 l 2.22668,1.440802 0.91689,4.584361 c 9.76209,11.32599 20.10203,22.07413 30.91172,32.35252 l -0.131,4.06044 -0.52393,2.35767 -12.57424,9.95462 c -3.09673,-2.42012 -6.47038,-4.47101 -10.60953,-5.50124 l -25.9344,-0.13098 -6.28714,0.78589 h -20.30219 l -2.35768,-0.91687 -7.59695,-9.95462 -1.83372,-0.65491 -7.46599,-7.59695 -0.78589,-2.48865 -0.26196,-6.41811"/>
    <path id="path7" d="m 797.67945,139.88861 c -0.98594,3.81752 -2.18725,7.79658 -1.83375,10.60953 -7.28107,6.11249 -17.47601,12.22497 -29.99483,18.33746"/>
    <path id="path8" d="m 747.77536,152.33189 c 6.83001,2.89311 13.03521,8.28543 18.46844,16.76567 3.57944,5.35723 6.57119,10.77324 -0.13097,17.15863 l -11.52641,8.38283 c -8.12618,0.77173 -13.61491,-0.71721 -19.38531,-1.96472 -10.48355,-4.46973 -20.63948,-5.00799 -30.78075,-5.37026"/>
    <path id="path9" d="m 702.97177,227.65542 c 9.42841,8.25414 18.03749,7.49558 26.48878,5.00138"/>
  </g>
</svg>
