<?xml version="1.0" encoding="UTF-8" standalone="no"?>
<!-- Created with Inkscape (http://www.inkscape.org/) -->

<svg
   width="210mm"
   height="297mm"
   viewBox="0 0 210 297"
   version="1.1"
   id="svg1"
   inkscape:version="1.4.4 (dcaf3e7, 2026-05-05)"
   sodipodi:docname="plane_of_ilwuoshim.svg"
   xmlns:inkscape="http://www.inkscape.org/namespaces/inkscape"
   xmlns:sodipodi="http://sodipodi.sourceforge.net/DTD/sodipodi-0.dtd"
   xmlns="http://www.w3.org/2000/svg"
   xmlns:svg="http://www.w3.org/2000/svg">
  <sodipodi:namedview
     id="namedview1"
     pagecolor="#ffffff"
     bordercolor="#000000"
     borderopacity="0.25"
     inkscape:showpageshadow="2"
     inkscape:pageopacity="0.0"
     inkscape:pagecheckerboard="0"
     inkscape:deskcolor="#d1d1d1"
     inkscape:document-units="mm"
     inkscape:zoom="1.611553"
     inkscape:cx="356.17816"
     inkscape:cy="532.71595"
     inkscape:window-width="3840"
     inkscape:window-height="2054"
     inkscape:window-x="-11"
     inkscape:window-y="-11"
     inkscape:window-maximized="1"
     inkscape:current-layer="layer4" />
  <defs
     id="defs1" />
  <g
     inkscape:label="outline"
     inkscape:groupmode="layer"
     id="layer1">
    <path
       style="fill:none;stroke:#000000;stroke-width:0.529167"
       d="m 35.791044,39.731344 c 0,0 15.925374,-5.746269 16.582088,-5.746269 0.656717,0 26.925373,-6.238806 27.58209,-6.238806 0.656717,0 21.179108,-4.761195 21.179108,-4.761195 0,0 12.80597,-5.089552 14.1194,-5.253731 1.31343,-0.164179 13.46269,-0.328358 14.61194,0 1.14925,0.328358 19.04478,7.716418 21.34328,8.865671 2.29851,1.149255 17.73135,0.492538 18.38806,0.656717 0.65672,0.16418 14.44776,8.701493 14.44776,8.701493 l 9.52239,21.343283 c 0,0 0.8209,19.701491 1.64179,21.014925 0.8209,1.313432 -3.61194,12.970148 -4.26865,14.447761 -0.65672,1.477611 -8.86568,15.761197 -9.02985,16.417907 -0.16418,0.65672 -5.41791,18.38806 -5.41791,18.38806 0,0 -7.8806,17.07463 -8.20896,17.89552 -0.32836,0.8209 1.80597,17.56717 2.29851,18.55224 0.49254,0.98508 4.26865,17.56717 4.26865,17.56717 l 5.74627,11.65671 c 0,0 1.97015,16.91045 1.47761,17.56717 -0.49253,0.65671 -11.32835,22.16418 -11.32835,22.16418 0,0 -11.8209,11.49253 -13.79105,12.64179 -1.97015,1.14925 -25.44776,5.41791 -28.73134,6.07462 -3.28358,0.65672 -36.447762,7.55224 -37.268656,8.20896 -0.820896,0.65672 -33,17.403 -33,17.403 l -17.074628,3.94028 -25.119402,2.13434"
       id="path1"
       inkscape:label="outline_partial" />
  </g>
  <g
     inkscape:groupmode="layer"
     id="layer2"
     inkscape:label="points_of_interest">
    <circle
       style="fill:none;stroke:#000000;stroke-width:0.529167"
       id="path2"
       cx="101.68881"
       cy="37.325058"
       r="0.53692621"
       inkscape:label="portal_arch" />
    <circle
       style="fill:none;stroke:#000000;stroke-width:0.529167"
       id="path2-1"
       cx="132.76091"
       cy="220.57288"
       r="0.53692621"
       inkscape:label="ilwuoshim's_complex" />
    <circle
       style="fill:none;stroke:#000000;stroke-width:0.529167"
       id="path2-8"
       cx="68.355957"
       cy="62.12368"
       r="0.53692621"
       inkscape:label="ceramic_workshop_and_spring" />
  </g>
  <g
     inkscape:groupmode="layer"
     id="layer5"
     inkscape:label="zones">
    <path
       style="fill:none;stroke:#000000;stroke-width:0.529167"
       d="m 46.955223,35.955224 c 0,0 -2.955224,69.447756 -2.955224,70.432836 0,0.98507 -2.955224,24.95522 -2.955224,24.95522 0,0 47.119402,-7.88059 49.253732,-8.53731 2.134328,-0.65672 33.820893,-22.32836 37.925373,-25.776122 4.10448,-3.447759 20.68657,-16.582088 24.79104,-17.402984 4.10448,-0.820894 32.17911,17.731343 33,17.895522 0.8209,0.164179 8.86568,-16.08955 9.02985,-17.567164 0.16418,-1.47761 -0.32835,-21.835819 -0.32835,-21.835819 L 184.04477,35.298507 c 0,0 -12.97014,-8.865672 -14.61194,-8.865672 -1.64179,0 -15.10447,1.477613 -15.92537,1.477613 -0.82089,0 -20.52239,-10.179105 -20.52239,-10.179105 l -18.88059,1.477612 z"
       id="path5"
       inkscape:label="rollings_hills" />
    <path
       style="fill:none;stroke:#000000;stroke-width:0.529167"
       d="m 41.208954,132 -1.47761,59.43283 c 0,0 16.08955,0.16418 19.537312,-0.16418 3.447761,-0.32835 21.014925,-8.86567 22.985073,-9.85074 1.970151,-0.98508 39.895521,8.86567 39.895521,8.86567 0,0 20.19403,-15.59702 20.35821,-16.41791 0.16418,-0.8209 -3.9403,-25.77612 -3.9403,-25.77612 l 29.55224,2.95522 0.16418,-5.41791 19.53731,-46.298502 -1.47761,-1.641793 -33,-18.059701 -63.208952,43.671646 z"
       id="path6"
       inkscape:label="forest" />
    <path
       style="fill:none;stroke:#000000;stroke-width:0.529167"
       d="m 56.149253,191.76119 -15.597016,89.64178 17.074629,-3.61193 33.492535,-17.40298 67.641789,-14.77612 c 0,0 12.14926,-12.14926 12.31344,-12.80597 0.16417,-0.65672 10.34328,-21.83582 10.34328,-21.83582 l -0.65672,-17.73135 c 0,0 -5.91045,-10.83582 -5.91045,-11.49253 0,-0.65672 -7.38806,-31.19403 -7.38806,-31.19403 l -29.38805,-2.13433 4.59701,26.10448 -20.68657,15.76119 -40.716414,-9.19403 z"
       id="path7"
       inkscape:label="plains" />
    <path
       style="fill:none;stroke:#000000;stroke-width:0.529167"
       d="m 39.567164,281.2388 17.402985,-88.65671 -18.059702,-0.98508 2.134328,-60.25373 3.119403,-25.1194 L 46.462685,36.940299 9.3582089,47.940298 23.970149,49.253729 0,79.791043 c 0,0 21.671641,-5.746268 21.179104,-4.925372 -0.492537,0.820896 -13.9552234,24.134328 -13.9552234,24.134328 0,0 13.9552234,5.253731 13.7910444,6.074631 C 20.850746,105.89552 10.179104,133.64179 11,133.64179 c 0.820895,0 16.253731,-3.1194 16.253731,-3.1194 L 0.3283582,168.77612 17.402985,169.10447 7.5522388,195.20895 22.656716,196.02985 7.7164178,235.92537 27.253731,235.26865 1.9701492,260.55224 23.313433,258.74626 3.9402985,283.37314 H 17.238806 Z"
       id="path8"
       inkscape:label="thick_mountains" />
  </g>
  <g
     inkscape:groupmode="layer"
     id="layer3"
     inkscape:label="roads">
    <path
       style="fill:none;stroke:#000000;stroke-width:0.529167"
       d="m 100.14925,39.567164 -3.776116,2.791045 -5.253733,0.328358 -2.462686,-1.805971 c 0,0 -1.80597,-1.64179 -2.955224,-1.64179 -1.149252,0 -5.582089,1.149252 -5.582089,1.149252 l -2.134328,1.805972 -1.477613,1.149252 -1.64179,0.985075 -4.432837,0.820896 c 0,0 -3.776118,2.298508 -4.432834,2.626866 -0.656716,0.328359 -5.746269,3.119403 -5.910448,3.77612 -0.164179,0.656716 -0.656716,2.462686 -1.477612,3.61194 -0.820895,1.149254 -2.955224,7.38806 -2.955224,7.38806 0,0 -1.149253,6.895522 -1.313432,7.716418 -0.16418,0.820895 -1.641791,5.41791 -1.97015,6.074627 C 52.044776,77 50.895522,81.432836 51.38806,82.089552 c 0.492537,0.656717 4.761194,6.731344 6.567164,7.880597 1.80597,1.149254 7.716418,3.77612 8.208955,4.925373 0.492537,1.149254 3.119403,5.582088 3.283582,6.567168 0.164179,0.98507 2.626866,4.59701 2.626866,4.59701 l 3.119403,3.77612 -0.492537,2.95522 -0.492538,2.46269"
       id="path3" />
    <path
       style="fill:none;stroke:#000000;stroke-width:0.529167"
       d="m 77.492536,43.014926 c 0,0 4.761193,7.716417 5.746269,8.701492 0.985075,0.985073 4.925372,4.925372 6.567164,5.910448 1.64179,0.985073 5.089552,3.119403 6.567165,4.432834 1.47761,1.313434 4.597016,3.77612 5.417906,5.253731 0.8209,1.477613 3.28359,5.089554 2.95523,7.55224 -0.32836,2.462686 -1.14926,5.746268 0,7.388058 1.14925,1.641793 6.2388,5.910448 6.89552,6.731344 0.65672,0.820896 4.26866,3.611941 5.25373,4.104479 0.98508,0.492537 10.50746,3.940296 11.49254,5.25373 0.98507,1.313434 3.1194,3.447758 3.9403,4.925368 0.82089,1.47762 5.41791,3.44777 5.91045,4.59702 0.49253,1.14925 0.82089,4.59701 0.16417,4.92537 -0.65671,0.32836 -3.9403,2.13433 -4.59701,2.62687 -0.65672,0.49254 -3.28358,2.62686 -4.10448,3.61194 -0.82089,0.98507 -1.14925,4.43284 -1.14925,5.25373 0,0.8209 -1.97015,5.74627 -1.97015,5.74627 0,0 -0.49254,2.13433 0.49253,2.62687 0.98508,0.49253 5.91045,-1.31344 6.73135,-1.6418 0.82089,-0.32836 1.47761,0.32836 1.64179,1.47762 0.16418,1.14925 0.49254,2.13432 0,3.28358 -0.49254,1.14925 -1.47761,2.46269 -2.95522,3.1194 -1.47762,0.65672 -2.79105,1.31343 -4.59702,3.1194 -1.80597,1.80597 -4.59701,2.62687 -6.07463,5.25374 -1.47761,2.62686 -3.1194,9.3582 -2.95522,11.32835 0.16418,1.97015 3.1194,10.67164 3.28358,11.32836 0.16418,0.65672 1.47762,3.44776 1.97015,4.76119 0.49254,1.31344 1.97015,3.77612 1.97015,5.5821 0,1.80596 0,3.28358 0,3.94029 0,0.65672 -0.65672,3.9403 -0.65672,3.9403 l -0.32835,1.47761"
       id="path9" />
  </g>
  <g
     inkscape:groupmode="layer"
     id="layer4"
     inkscape:label="rivers">
    <path
       style="fill:none;stroke:#000000;stroke-width:0.529167"
       d="m 73.716416,29.716417 -1.805969,3.9403 -1.149255,2.791044 -0.328358,2.626866 v 4.432834 c 0,0 0,2.13433 0.164179,3.611941 0.164179,1.477613 0.328359,6.074627 0.328359,6.074627 v 3.940299 l -1.64179,4.761193"
       id="path4" />
    <path
       style="fill:none;stroke:#000000;stroke-width:0.529167"
       d="m 15.925373,150.88059 c 0,0 5.089552,2.79105 6.895522,3.61194 1.80597,0.8209 8.373136,3.61195 9.358208,3.9403 0.985076,0.32836 4.761196,1.47761 6.731344,1.64179 1.970149,0.16418 4.104479,0.16418 7.880596,0.16418 3.77612,0 11.985075,0 15.925374,-0.49253 3.940299,-0.49254 5.089552,-0.65672 10.343285,-1.97015 5.25373,-1.31343 9.358206,-0.8209 11.656716,-3.11941 2.298507,-2.2985 4.432834,-2.13432 5.582089,-4.43283 1.149252,-2.29851 1.313431,-3.44776 2.462686,-4.92538 1.149255,-1.47761 6.731344,-3.77611 8.537317,-3.77611 1.80597,0 1.80597,0.32835 5.08955,0.49253 3.28358,0.16418 4.92537,0.32836 6.40298,0.16418 1.47762,-0.16418 6.56717,-1.14925 8.04478,-1.97015 1.47761,-0.82089 4.10448,-1.64179 6.40298,-2.62686 2.29851,-0.98508 3.77612,-0.98508 5.74627,-2.46269 1.97015,-1.47761 4.43284,-3.44776 6.73135,-4.59701 2.2985,-1.14926 2.95522,-2.46269 5.74626,-2.46269 2.79105,0 7.38806,-0.49254 9.85075,-0.49254 2.46269,0 6.56717,-0.32836 8.53731,0.32836 1.97015,0.65672 7.22389,2.13433 8.37314,2.62687 1.14925,0.49253 2.46268,1.14925 2.46268,1.14925"
       id="path10" />
  </g>
</svg>
